<?xml version="1.0" encoding="utf-8"?>
<!-- Generator: Adobe Illustrator 22.1.0, SVG Export Plug-In . SVG Version: 6.00 Build 0)  -->
<svg version="1.1" id="Layer_1" xmlns="http://www.w3.org/2000/svg" xmlns:xlink="http://www.w3.org/1999/xlink" x="0px" y="0px"
	 viewBox="0 0 648 252" style="enable-background:new 0 0 648 252;" xml:space="preserve">
<style type="text/css">
	.st0{fill:#808002;}
	.st1{fill:#808002;stroke:#808002;stroke-width:7;stroke-miterlimit:10;}
</style>
<g>
	<path class="st0" d="M86.9,121.7c5.2,2.1,9,4.8,11.3,7.9c2.4,3.1,3.6,6.5,3.6,10c0,8-3.2,14-9.6,17.9c-6.4,3.9-15.4,5.9-27.2,5.9
		c-2.4,0-4.4,0-6-0.1c-5.6-0.2-11-0.2-16.3-0.2c-9.6,0-16.7,0.1-21.3,0.4v-2.5c2.6-0.2,4.5-0.5,5.7-1c1.2-0.5,2-1.4,2.4-2.8
		c0.4-1.4,0.6-3.6,0.6-6.7V89.6c0-3.1-0.2-5.4-0.7-6.7C29,81.5,28.2,80.5,27,80c-1.1-0.5-3-0.8-5.6-1v-2.5C26,76.8,33.1,77,42.5,77
		l14.1-0.1c1.6-0.1,3.5-0.1,5.6-0.1c10.8,0,19,1.7,24.7,5.2c5.7,3.5,8.5,8.2,8.5,14c0,3-1.1,6.1-3.2,9.1c-2.1,3.1-5.3,5.7-9.6,8
		c-4.2,2.3-9.4,3.8-15.6,4.5v0.2C75.1,118.3,81.7,119.6,86.9,121.7z M57.4,79.9c-0.9,0.6-1.6,1.6-1.9,3.1c-0.3,1.5-0.5,3.7-0.5,6.6
		v27.7h3.3c4.4,0,7.5-1.8,9.3-5.5c1.8-3.6,2.6-8.5,2.6-14.5c0-6.2-0.7-10.8-2-13.8c-1.3-3-3.5-4.5-6.6-4.5
		C59.7,79.1,58.3,79.3,57.4,79.9z M76,139.1c0-6.5-1.6-11.4-4.7-14.7c-3.1-3.3-8-5-14.7-5H55v31c0,2.9,0.2,5.1,0.6,6.5
		c0.4,1.4,1.2,2.3,2.3,2.9c1.1,0.5,2.8,0.8,5.1,0.8C71.7,160.6,76,153.4,76,139.1z"/>
	<path class="st0" d="M171.4,150c0,3.8,0.5,6.5,1.5,8.2c1,1.7,2.8,2.6,5.3,2.6v2.6c-2.5-0.2-5.1-0.4-7.6-0.4
		c-8.5,0-15.6,0.6-21.3,1.7v-8.8c-3.7,6.1-10.2,9.2-19.5,9.2c-6.5,0-11.2-1.6-13.8-4.9c-1.2-1.5-2.1-3.5-2.7-5.9
		c-0.6-2.5-0.9-5.8-0.9-9.9v-31.3c0-3.8-0.5-6.5-1.5-8.2c-1-1.7-2.8-2.6-5.3-2.6v-2.6c2.5,0.2,5.1,0.4,7.6,0.4
		c8.5,0,15.6-0.6,21.3-1.7V151c0,2.6,0.5,4.6,1.4,5.8c0.9,1.3,2.5,1.9,4.6,1.9c2.4,0,4.4-0.8,6.2-2.5c1.8-1.7,2.6-3.8,2.6-6.3v-36.8
		c0-3.8-0.5-6.5-1.5-8.2s-2.8-2.6-5.3-2.6v-2.6c2.5,0.2,5.1,0.4,7.6,0.4c8.5,0,15.6-0.6,21.3-1.7V150z"/>
	<path class="st0" d="M286.1,158.9c1,1.3,2.8,1.9,5.3,1.9v2.6c-8.8-0.3-14.5-0.5-17.2-0.5c-2.6,0-8,0.2-16.2,0.5v-2.6
		c1.6,0,2.8-0.6,3.4-1.8c0.7-1.2,1-3.6,1-7v-39.8c0-2.6-0.5-4.6-1.4-5.8c-0.9-1.3-2.5-1.9-4.6-1.9s-4.1,0.9-5.8,2.7
		c-1.8,1.8-2.8,3.9-3.2,6.4c0.2,2,0.2,3.7,0.2,5.3V152c0,3.4,0.4,5.8,1.2,7c0.8,1.2,2.3,1.8,4.4,1.8v2.6c-8.2-0.3-13.5-0.5-15.9-0.5
		c-2.6,0-8,0.2-16.2,0.5v-2.6c1.6,0,2.8-0.6,3.4-1.9c0.7-1.3,1-3.6,1-6.9v-39.8c0-2.6-0.4-4.6-1.1-5.8c-0.7-1.3-2-1.9-3.7-1.9
		c-2.4,0-4.4,0.8-6.2,2.5c-1.8,1.7-2.6,3.8-2.6,6.3V152c0,3.4,0.3,5.8,1,7c0.7,1.2,1.8,1.8,3.4,1.8v2.6c-7.5-0.3-12.5-0.5-15-0.5
		c-2.8,0-8.9,0.2-18.4,0.5v-2.6c2.5,0,4.3-0.6,5.3-1.9c1-1.3,1.5-3.6,1.5-6.9v-38.9c0-3.8-0.5-6.5-1.5-8.2c-1-1.7-2.8-2.6-5.3-2.6
		v-2.6c2.6,0.2,5.1,0.4,7.6,0.4c8.5,0,15.6-0.6,21.3-1.7v8.8c3.4-6.1,9.5-9.2,18.3-9.2c6.5,0,11.2,1.6,13.9,4.9
		c1.2,1.5,2.1,3.4,2.7,5.8c2-3.9,4.8-6.7,8.2-8.3c3.4-1.6,7.5-2.4,12.2-2.4c6.5,0,11.2,1.6,13.9,4.9c1.2,1.5,2.1,3.5,2.7,5.9
		c0.6,2.5,0.9,5.8,0.9,9.9V152C284.5,155.3,285,157.6,286.1,158.9z"/>
	<path class="st0" d="M343.7,72.1c1.3,1,2.4,2.4,3.2,4.2c0.9,1.8,1.3,3.8,1.3,6c0,2.6-1,4.9-2.9,6.9c-1.9,2-4.4,3-7.3,3
		c-3.4,0-6.1-0.9-8.1-2.7c-2-1.8-2.9-4.3-2.9-7.5c0-2.5,0.7-4.7,2.1-6.6c1.4-2,3.5-3.4,6.3-4.3c-0.6-0.7-1.7-1.1-3.3-1.1
		c-2.5,0-4.5,0.8-5.8,2.3c-0.8,1-1.4,2.3-1.8,4c-0.4,1.7-0.6,4.1-0.6,7.2v16.4h13.1v2.5h-13.1v48.4c0,3.8,0.9,6.4,2.6,7.8
		c1.8,1.5,4.4,2.2,7.9,2.2v2.6l-3.6-0.1c-9.8-0.2-16.1-0.4-19-0.4c-2.5,0-8.1,0.2-16.9,0.5v-2.6c2.5,0,4.3-0.6,5.3-1.9
		c1-1.3,1.5-3.6,1.5-6.9v-49.6h-7.4v-2.5h7.4c0-7.1,0.6-12.6,1.9-16.4s3.5-7.1,6.8-9.9c2-1.7,4.7-3.2,8-4.4
		c3.3-1.2,6.7-1.8,10.3-1.8C334.9,67.5,339.8,69,343.7,72.1z"/>
	<path class="st0" d="M404.7,150c0,3.8,0.5,6.5,1.5,8.2c1,1.7,2.8,2.6,5.3,2.6v2.6c-2.5-0.2-5.1-0.4-7.6-0.4
		c-8.5,0-15.6,0.6-21.3,1.7v-8.8c-3.7,6.1-10.2,9.2-19.5,9.2c-6.5,0-11.2-1.6-13.9-4.9c-1.2-1.5-2.1-3.5-2.7-5.9
		c-0.6-2.5-0.9-5.8-0.9-9.9v-31.3c0-3.8-0.5-6.5-1.5-8.2c-1-1.7-2.8-2.6-5.3-2.6v-2.6c2.5,0.2,5.1,0.4,7.6,0.4
		c8.5,0,15.6-0.6,21.3-1.7V151c0,2.6,0.5,4.6,1.4,5.8c0.9,1.3,2.5,1.9,4.6,1.9c2.4,0,4.4-0.8,6.2-2.5c1.8-1.7,2.6-3.8,2.6-6.3v-36.8
		c0-3.8-0.5-6.5-1.5-8.2c-1-1.7-2.8-2.6-5.3-2.6v-2.6c2.5,0.2,5.1,0.4,7.6,0.4c8.5,0,15.6-0.6,21.3-1.7V150z"/>
	<path class="st0" d="M441.1,161.5h1.7c5.4,0,10.1-1.8,14.2-5.5c4-3.6,6.4-9.6,7-18h2.5c0,12.3,0.2,20.8,0.5,25.7
		c-6.8-0.3-14.8-0.5-24-0.5c-8.2,0-16.8,0.2-26,0.6l27.5-62.3h-2.5c-5.3,0-9.9,1.8-13.7,5.5c-3.8,3.6-6.1,9.6-6.7,18H419
		c0-12.3-0.2-20.8-0.5-25.7c6.8,0.3,14.8,0.5,24,0.5c8.2,0,16.8-0.2,26-0.6L441.1,161.5z"/>
	<path class="st0" d="M498.9,161.5h1.7c5.4,0,10.1-1.8,14.2-5.5c4-3.6,6.4-9.6,7-18h2.5c0,12.3,0.2,20.8,0.5,25.7
		c-6.8-0.3-14.8-0.5-24-0.5c-8.2,0-16.8,0.2-26,0.6l27.5-62.3h-2.5c-5.3,0-9.9,1.8-13.7,5.5c-3.8,3.6-6.1,9.6-6.7,18h-2.5
		c0-12.3-0.2-20.8-0.5-25.7c6.8,0.3,14.8,0.5,24,0.5c8.2,0,16.8-0.2,26-0.6L498.9,161.5z"/>
	<path class="st0" d="M560.6,152c0,3.4,0.5,5.7,1.5,6.9c1,1.3,2.8,1.9,5.3,1.9v2.6c-8.8-0.3-14.6-0.5-17.4-0.5s-8.9,0.2-18.4,0.5
		v-2.6c2.5,0,4.3-0.6,5.3-1.9c1-1.3,1.5-3.6,1.5-6.9V82.2c0-3.8-0.5-6.5-1.5-8.2c-1-1.7-2.8-2.6-5.3-2.6v-2.6
		c2.5,0.2,5.1,0.4,7.6,0.4c8.5,0,15.6-0.6,21.3-1.7V152z"/>
	<path class="st0" d="M624.1,143.5l2.1,0.7c-1.8,5.7-4.8,10.6-9.1,14.7c-4.3,4.1-9.8,6.1-16.5,6.1c-8.6,0-15.4-2.7-20.6-8
		c-5.1-5.3-7.7-13.8-7.7-25.5c0-11.2,2.9-19.6,8.6-25.2c5.8-5.6,13.4-8.4,22.9-8.4c15.4,0,23.2,9.2,23.2,27.5h-31.6
		c-0.1,1-0.1,2.5-0.1,4.4c0,7.8,1.4,13.4,4.1,16.8c2.7,3.4,6.1,5,10,5C615.2,151.7,620.1,149,624.1,143.5z M594.8,123.2H609
		c0.1-6.5-0.4-11.9-1.4-16.1c-1-4.2-2.6-6.3-4.7-6.3C598.3,100.9,595.6,108.3,594.8,123.2z"/>
</g>
<path class="st1" d="M568.9,81c18.4,0,36.7,0,55.1,0"/>
<path class="st1" d="M356.7,81c56.3,0,111.3,0,167.6,0"/>
<path class="st1" d="M99.3,81c65.4,0,131,0,196.7,0"/>
<path class="st1" d="M18.3,181c201.3,0,403.5,0,605.7,0"/>
</svg>
